<svg width="17" height="16" viewBox="0 0 17 16" fill="none" xmlns="http://www.w3.org/2000/svg">
<path d="M1.15429 8.5957L8.10429 15.5457C8.27178 15.7132 8.47174 15.8 8.7 15.8C8.92826 15.8 9.12822 15.7132 9.29571 15.5457C9.4632 15.3782 9.55 15.1782 9.55 14.95C9.55 14.7253 9.47402 14.5326 9.32071 14.3793L3.79142 8.84999H15.95C16.1908 8.84999 16.3962 8.77024 16.5582 8.6082C16.7203 8.44616 16.8 8.24079 16.8 7.99999C16.8 7.75918 16.7203 7.55382 16.5582 7.39178C16.3962 7.22973 16.1908 7.14999 15.95 7.14999H3.79142L9.29571 1.6457C9.4632 1.47821 9.55 1.27824 9.55 1.04999C9.55 0.821733 9.4632 0.621768 9.29571 0.454277C9.12822 0.286786 8.92825 0.199988 8.7 0.199988C8.47526 0.199988 8.2826 0.275964 8.12929 0.429277L1.15429 7.40428C1.06423 7.49433 0.996824 7.58867 0.957152 7.68785C0.918584 7.78427 0.9 7.88872 0.9 7.99999C0.9 8.11126 0.918584 8.21571 0.957152 8.31213C0.996824 8.41131 1.06423 8.50564 1.15429 8.5957Z" fill="#0F0F0F" stroke="#0F0F0F" stroke-width="0.2"/>
</svg>
