<svg xmlns="http://www.w3.org/2000/svg" width="16" height="16" viewBox="0 0 16 16" fill="none">
  <path fill-rule="evenodd" clip-rule="evenodd" d="M5.33333 0.833984C5.60948 0.833984 5.83333 1.05784 5.83333 1.33398V2.16732H10.1667V1.33398C10.1667 1.05784 10.3905 0.833984 10.6667 0.833984C10.9428 0.833984 11.1667 1.05784 11.1667 1.33398V2.16763C11.553 2.16873 11.8789 2.17372 12.1543 2.19623C12.5187 2.226 12.8388 2.28891 13.135 2.4398C13.6054 2.67948 13.9878 3.06194 14.2275 3.53234C14.3784 3.82849 14.4413 4.14858 14.4711 4.51301C14.5 4.86694 14.5 5.30402 14.5 5.8459V11.4887C14.5 12.0306 14.5 12.4677 14.4711 12.8216C14.4413 13.1861 14.3784 13.5061 14.2275 13.8023C13.9878 14.2727 13.6054 14.6552 13.135 14.8948C12.8388 15.0457 12.5187 15.1086 12.1543 15.1384C11.8004 15.1673 11.3633 15.1673 10.8214 15.1673H5.17858C4.6367 15.1673 4.19963 15.1673 3.84569 15.1384C3.48126 15.1086 3.16117 15.0457 2.86502 14.8948C2.39462 14.6552 2.01217 14.2727 1.77248 13.8023C1.62159 13.5061 1.55868 13.1861 1.52891 12.8216C1.49999 12.4677 1.5 12.0306 1.5 11.4887V5.84591C1.5 5.30402 1.49999 4.86695 1.52891 4.51301C1.55868 4.14858 1.62159 3.82849 1.77248 3.53234C2.01217 3.06194 2.39462 2.67948 2.86502 2.4398C3.16117 2.28891 3.48126 2.226 3.84569 2.19623C4.12114 2.17372 4.44695 2.16873 4.83333 2.16763V1.33398C4.83333 1.05784 5.05719 0.833984 5.33333 0.833984ZM4.83333 3.16768C4.45369 3.16882 4.16443 3.17352 3.92712 3.19291C3.62454 3.21763 3.45069 3.26371 3.31901 3.33081C3.03677 3.47462 2.8073 3.70409 2.66349 3.98633C2.5964 4.11801 2.55031 4.29185 2.52559 4.59444C2.50039 4.90286 2.5 5.29902 2.5 5.86732V6.16732H13.5V5.86732C13.5 5.29902 13.4996 4.90286 13.4744 4.59444C13.4497 4.29185 13.4036 4.11801 13.3365 3.98633C13.1927 3.70409 12.9632 3.47462 12.681 3.33081C12.5493 3.26371 12.3755 3.21763 12.0729 3.19291C11.8356 3.17352 11.5463 3.16882 11.1667 3.16768V4.00065C11.1667 4.27679 10.9428 4.50065 10.6667 4.50065C10.3905 4.50065 10.1667 4.27679 10.1667 4.00065V3.16732H5.83333V4.00065C5.83333 4.27679 5.60948 4.50065 5.33333 4.50065C5.05719 4.50065 4.83333 4.27679 4.83333 4.00065V3.16768ZM13.5 7.16732H2.5V11.4673C2.5 12.0356 2.50039 12.4318 2.52559 12.7402C2.55031 13.0428 2.5964 13.2166 2.66349 13.3483C2.8073 13.6305 3.03677 13.86 3.31901 14.0038C3.45069 14.0709 3.62454 14.117 3.92712 14.1417C4.23554 14.1669 4.6317 14.1673 5.2 14.1673H10.8C11.3683 14.1673 11.7645 14.1669 12.0729 14.1417C12.3755 14.117 12.5493 14.0709 12.681 14.0038C12.9632 13.86 13.1927 13.6305 13.3365 13.3483C13.4036 13.2166 13.4497 13.0428 13.4744 12.7402C13.4996 12.4318 13.5 12.0356 13.5 11.4673V7.16732Z" fill="black"/>
</svg>