<svg width="24" height="24" viewBox="0 0 24 24" fill="none" xmlns="http://www.w3.org/2000/svg">
<g id="CIN0013-24L">
<path id="Vector" d="M12 13.0496L6.74998 18.2996C6.59998 18.4496 6.42498 18.5246 6.22498 18.5246C6.02498 18.5246 5.84998 18.4496 5.69998 18.2996C5.54998 18.1496 5.47498 17.9746 5.47498 17.7746C5.47498 17.5746 5.54998 17.3996 5.69998 17.2496L10.95 11.9996L5.69998 6.74961C5.54998 6.59961 5.47498 6.42461 5.47498 6.22461C5.47498 6.02461 5.54998 5.84961 5.69998 5.69961C5.84998 5.54961 6.02498 5.47461 6.22498 5.47461C6.42498 5.47461 6.59998 5.54961 6.74998 5.69961L12 10.9496L17.25 5.69961C17.4 5.54961 17.575 5.47461 17.775 5.47461C17.975 5.47461 18.15 5.54961 18.3 5.69961C18.45 5.84961 18.525 6.02461 18.525 6.22461C18.525 6.42461 18.45 6.59961 18.3 6.74961L13.05 11.9996L18.3 17.2496C18.45 17.3996 18.525 17.5746 18.525 17.7746C18.525 17.9746 18.45 18.1496 18.3 18.2996C18.15 18.4496 17.975 18.5246 17.775 18.5246C17.575 18.5246 17.4 18.4496 17.25 18.2996L12 13.0496Z" fill="#1F1F1F"/>
</g>
</svg>
