<svg width="20" height="20" viewBox="0 0 20 20" fill="none" xmlns="http://www.w3.org/2000/svg">
<g id="CIN0014-24L">
<path id="Vector" d="M6.43734 13.5625C6.56234 13.6875 6.70817 13.75 6.87484 13.75C7.0415 13.75 7.18734 13.6875 7.31234 13.5625L9.99984 10.875L12.7082 13.5833C12.8193 13.6944 12.9616 13.7465 13.1353 13.7396C13.3089 13.7326 13.4512 13.6736 13.5623 13.5625C13.6873 13.4375 13.7498 13.2917 13.7498 13.125C13.7498 12.9583 13.6873 12.8125 13.5623 12.6875L10.8748 10L13.5832 7.29167C13.6943 7.18056 13.7464 7.0382 13.7394 6.86459C13.7325 6.69098 13.6734 6.54862 13.5623 6.43751C13.4373 6.31251 13.2915 6.25001 13.1248 6.25001C12.9582 6.25001 12.8123 6.31251 12.6873 6.43751L9.99984 9.12501L7.2915 6.41667C7.18039 6.30556 7.03803 6.25348 6.86442 6.26042C6.69081 6.26737 6.54845 6.32639 6.43734 6.43751C6.31234 6.56251 6.24984 6.70834 6.24984 6.87501C6.24984 7.04167 6.31234 7.18751 6.43734 7.31251L9.12484 10L6.4165 12.7083C6.30539 12.8195 6.25331 12.9618 6.26025 13.1354C6.2672 13.309 6.32623 13.4514 6.43734 13.5625ZM9.99984 18.3333C8.81928 18.3333 7.72206 18.1215 6.70817 17.6979C5.69428 17.2743 4.81234 16.6875 4.06234 15.9375C3.31234 15.1875 2.72553 14.3056 2.30192 13.2917C1.87831 12.2778 1.6665 11.1806 1.6665 10C1.6665 8.83334 1.87831 7.74306 2.30192 6.72917C2.72553 5.71528 3.31234 4.83334 4.06234 4.08334C4.81234 3.33334 5.69428 2.74306 6.70817 2.31251C7.72206 1.88195 8.81928 1.66667 9.99984 1.66667C11.1665 1.66667 12.2568 1.88195 13.2707 2.31251C14.2846 2.74306 15.1665 3.33334 15.9165 4.08334C16.6665 4.83334 17.2568 5.71528 17.6873 6.72917C18.1179 7.74306 18.3332 8.83334 18.3332 10C18.3332 11.1806 18.1179 12.2778 17.6873 13.2917C17.2568 14.3056 16.6665 15.1875 15.9165 15.9375C15.1665 16.6875 14.2846 17.2743 13.2707 17.6979C12.2568 18.1215 11.1665 18.3333 9.99984 18.3333ZM9.99984 17.0833C11.9443 17.0833 13.6109 16.3889 14.9998 15C16.3887 13.6111 17.0832 11.9445 17.0832 10C17.0832 8.05556 16.3887 6.38889 14.9998 5.00001C13.6109 3.61112 11.9443 2.91667 9.99984 2.91667C8.05539 2.91667 6.38873 3.61112 4.99984 5.00001C3.61095 6.38889 2.9165 8.05556 2.9165 10C2.9165 11.9445 3.61095 13.6111 4.99984 15C6.38873 16.3889 8.05539 17.0833 9.99984 17.0833Z" fill="#CC0300"/>
</g>
</svg>
