<svg width="18" height="18" viewBox="0 0 18 18" fill="none" xmlns="http://www.w3.org/2000/svg">
<path fill-rule="evenodd" clip-rule="evenodd" d="M2.5875 15.4125C2.8125 15.6375 3.075 15.75 3.375 15.75H14.625C14.925 15.75 15.1875 15.6375 15.4125 15.4125C15.6375 15.1875 15.75 14.925 15.75 14.625V3.375C15.75 3.075 15.6375 2.8125 15.4125 2.5875C15.1875 2.3625 14.925 2.25 14.625 2.25H3.375C3.075 2.25 2.8125 2.3625 2.5875 2.5875C2.3625 2.8125 2.25 3.075 2.25 3.375V14.625C2.25 14.925 2.3625 15.1875 2.5875 15.4125Z" fill="#0F0F0F"/>
<mask id="path-2-outside-1_13_1327" maskUnits="userSpaceOnUse" x="4.52209" y="5.51111" width="9" height="7" fill="black">
<rect fill="white" x="4.52209" y="5.51111" width="9" height="7"/>
<path fill-rule="evenodd" clip-rule="evenodd" d="M7.86654 11.4667C7.82209 11.4667 7.78135 11.4593 7.74432 11.4444C7.70728 11.4296 7.67024 11.4037 7.63321 11.3667L5.62209 9.35555C5.55543 9.28889 5.52209 9.2074 5.52209 9.11111C5.52209 9.01481 5.55543 8.93333 5.62209 8.86666C5.68876 8.8 5.76654 8.76666 5.85543 8.76666C5.94432 8.76666 6.02209 8.8 6.08876 8.86666L7.86654 10.6444L11.8999 6.61111C11.9665 6.54444 12.0462 6.51111 12.1388 6.51111C12.2314 6.51111 12.311 6.54444 12.3777 6.61111C12.4443 6.67777 12.4777 6.7574 12.4777 6.85C12.4777 6.94259 12.4443 7.02222 12.3777 7.08889L8.09987 11.3667C8.06284 11.4037 8.0258 11.4296 7.98876 11.4444C7.95172 11.4593 7.91098 11.4667 7.86654 11.4667Z"/>
</mask>
<path fill-rule="evenodd" clip-rule="evenodd" d="M7.86654 11.4667C7.82209 11.4667 7.78135 11.4593 7.74432 11.4444C7.70728 11.4296 7.67024 11.4037 7.63321 11.3667L5.62209 9.35555C5.55543 9.28889 5.52209 9.2074 5.52209 9.11111C5.52209 9.01481 5.55543 8.93333 5.62209 8.86666C5.68876 8.8 5.76654 8.76666 5.85543 8.76666C5.94432 8.76666 6.02209 8.8 6.08876 8.86666L7.86654 10.6444L11.8999 6.61111C11.9665 6.54444 12.0462 6.51111 12.1388 6.51111C12.2314 6.51111 12.311 6.54444 12.3777 6.61111C12.4443 6.67777 12.4777 6.7574 12.4777 6.85C12.4777 6.94259 12.4443 7.02222 12.3777 7.08889L8.09987 11.3667C8.06284 11.4037 8.0258 11.4296 7.98876 11.4444C7.95172 11.4593 7.91098 11.4667 7.86654 11.4667Z" fill="white"/>
<path d="M7.74432 11.4444L7.62052 11.7539H7.62052L7.74432 11.4444ZM7.63321 11.3667L7.3975 11.6024L7.63321 11.3667ZM5.62209 9.35555L5.8578 9.11985H5.8578L5.62209 9.35555ZM5.62209 8.86666L5.38639 8.63096L5.38639 8.63096L5.62209 8.86666ZM6.08876 8.86666L6.32446 8.63096H6.32446L6.08876 8.86666ZM7.86654 10.6444L7.63084 10.8801L7.86654 11.1158L8.10224 10.8801L7.86654 10.6444ZM11.8999 6.61111L11.6642 6.37541L11.6642 6.37541L11.8999 6.61111ZM12.3777 6.61111L12.6134 6.37541L12.6134 6.37541L12.3777 6.61111ZM12.3777 7.08889L12.6134 7.32459V7.32459L12.3777 7.08889ZM8.09987 11.3667L8.33557 11.6024L8.33557 11.6024L8.09987 11.3667ZM7.62052 11.7539C7.70119 11.7862 7.78453 11.8 7.86654 11.8V11.1333C7.85966 11.1333 7.86152 11.1323 7.86811 11.1349L7.62052 11.7539ZM7.3975 11.6024C7.45695 11.6618 7.53066 11.718 7.62052 11.7539L7.86811 11.1349C7.87628 11.1382 7.88019 11.141 7.87991 11.1408C7.87957 11.1406 7.8758 11.1379 7.86891 11.131L7.3975 11.6024ZM5.38639 9.59125L7.3975 11.6024L7.86891 11.131L5.8578 9.11985L5.38639 9.59125ZM5.18876 9.11111C5.18876 9.29369 5.25573 9.46059 5.38639 9.59125L5.8578 9.11985C5.85656 9.11862 5.85576 9.1177 5.85528 9.11713C5.85504 9.11684 5.85488 9.11663 5.85478 9.11649C5.85467 9.11635 5.85463 9.11629 5.85463 9.11628C5.85463 9.11628 5.85466 9.11634 5.85473 9.11645C5.8548 9.11656 5.85488 9.11671 5.85498 9.1169C5.85519 9.11729 5.85541 9.11775 5.85561 9.11823C5.85605 9.11931 5.85609 9.11977 5.85597 9.11912C5.85584 9.11842 5.85543 9.1159 5.85543 9.11111H5.18876ZM5.38639 8.63096C5.25573 8.76162 5.18876 8.92852 5.18876 9.11111H5.85543C5.85543 9.10632 5.85584 9.1038 5.85597 9.10309C5.85609 9.10245 5.85605 9.1029 5.85561 9.10399C5.85541 9.10447 5.85519 9.10493 5.85498 9.10532C5.85488 9.10551 5.8548 9.10566 5.85473 9.10577C5.85466 9.10588 5.85463 9.10593 5.85463 9.10593C5.85463 9.10593 5.85468 9.10586 5.85478 9.10573C5.85488 9.10559 5.85504 9.10538 5.85528 9.10509C5.85576 9.10452 5.85656 9.1036 5.8578 9.10237L5.38639 8.63096ZM5.85543 8.43333C5.67236 8.43333 5.51136 8.50599 5.38639 8.63096L5.8578 9.10237C5.86456 9.0956 5.86603 9.0962 5.86173 9.09805C5.85988 9.09884 5.85791 9.09943 5.85622 9.09977C5.85456 9.1001 5.85415 9.1 5.85543 9.1V8.43333ZM6.32446 8.63096C6.19949 8.50599 6.0385 8.43333 5.85543 8.43333V9.1C5.8567 9.1 5.85629 9.1001 5.85464 9.09977C5.85294 9.09943 5.85098 9.09884 5.84912 9.09805C5.84482 9.0962 5.84629 9.0956 5.85306 9.10237L6.32446 8.63096ZM8.10224 10.4087L6.32446 8.63096L5.85306 9.10237L7.63084 10.8801L8.10224 10.4087ZM11.6642 6.37541L7.63084 10.4087L8.10224 10.8801L12.1356 6.84681L11.6642 6.37541ZM12.1388 6.17777C11.956 6.17777 11.7921 6.24751 11.6642 6.37541L12.1356 6.84681C12.1386 6.84383 12.1402 6.84267 12.1404 6.84255C12.1405 6.84246 12.1398 6.84297 12.1383 6.84359C12.1368 6.84421 12.1356 6.84452 12.1351 6.84462C12.1346 6.84471 12.1357 6.84444 12.1388 6.84444V6.17777ZM12.6134 6.37541C12.4855 6.24751 12.3216 6.17777 12.1388 6.17777V6.84444C12.1418 6.84444 12.1429 6.84471 12.1424 6.84462C12.1419 6.84452 12.1407 6.84421 12.1392 6.84359C12.1377 6.84297 12.137 6.84246 12.1371 6.84255C12.1373 6.84267 12.139 6.84383 12.1419 6.84681L12.6134 6.37541ZM12.811 6.85C12.811 6.66721 12.7413 6.50331 12.6134 6.37541L12.1419 6.84681C12.1449 6.8498 12.1461 6.85146 12.1462 6.85164C12.1463 6.85177 12.1458 6.85102 12.1452 6.84954C12.1445 6.84806 12.1442 6.84685 12.1441 6.84632C12.1441 6.84586 12.1443 6.84693 12.1443 6.85H12.811ZM12.6134 7.32459C12.7413 7.19669 12.811 7.03279 12.811 6.85H12.1443C12.1443 6.85306 12.1441 6.85414 12.1441 6.85367C12.1442 6.85315 12.1445 6.85193 12.1452 6.85045C12.1458 6.84897 12.1463 6.84822 12.1462 6.84835C12.1461 6.84853 12.1449 6.8502 12.1419 6.85318L12.6134 7.32459ZM8.33557 11.6024L12.6134 7.32459L12.1419 6.85318L7.86417 11.131L8.33557 11.6024ZM8.11256 11.7539C8.20241 11.718 8.27613 11.6618 8.33557 11.6024L7.86417 11.131C7.85728 11.1379 7.85351 11.1406 7.85316 11.1408C7.85289 11.141 7.8568 11.1382 7.86496 11.1349L8.11256 11.7539ZM7.86654 11.8C7.94855 11.8 8.03189 11.7862 8.11256 11.7539L7.86496 11.1349C7.87156 11.1323 7.87342 11.1333 7.86654 11.1333V11.8Z" fill="white" mask="url(#path-2-outside-1_13_1327)"/>
</svg>
