<svg xmlns="http://www.w3.org/2000/svg" width="24" height="24" viewBox="0 0 24 24" fill="none">
  <g clip-path="url(#clip0_891_7675)">
    <path fill-rule="evenodd" clip-rule="evenodd" d="M24.0005 12C24.0005 18.6274 18.6279 24 12.0005 24C5.37307 24 0.000488281 18.6274 0.000488281 12C0.000488281 5.37258 5.37307 0 12.0005 0C18.6279 0 24.0005 5.37258 24.0005 12ZM18.2492 9.24794C18.7179 8.77931 18.7179 8.01952 18.2492 7.55089C17.7806 7.08226 17.0208 7.08226 16.5522 7.55089L10.2007 13.9024L7.44924 11.1509C6.98061 10.6823 6.22081 10.6823 5.75218 11.1509C5.28355 11.6195 5.28355 12.3793 5.75218 12.8479L9.35218 16.4479C9.82081 16.9166 10.5806 16.9166 11.0492 16.4479L18.2492 9.24794Z" fill="#008F32"/>
  </g>
  <defs>
    <clipPath id="clip0_891_7675">
      <rect width="24" height="24" fill="white"/>
    </clipPath>
  </defs>
</svg>