<svg xmlns="http://www.w3.org/2000/svg" width="21" height="20" viewBox="0 0 21 20" fill="none">
  <path fill-rule="evenodd" clip-rule="evenodd" d="M4.8083 1.04102L10.5214 1.04102C10.8918 1.04101 11.201 1.041 11.4548 1.05832C11.719 1.07635 11.9687 1.11522 12.2106 1.21546C12.7722 1.44805 13.2183 1.89418 13.4509 2.4557C13.5511 2.69769 13.59 2.9473 13.608 3.21155C13.6253 3.46539 13.6253 3.77459 13.6253 4.14497V4.16602C13.6253 4.51119 13.3455 4.79102 13.0003 4.79102C12.6551 4.79102 12.3753 4.51119 12.3753 4.16602C12.3753 3.76918 12.375 3.50285 12.3609 3.29663C12.3472 3.09603 12.3227 2.99835 12.296 2.93405C12.1903 2.67882 11.9875 2.47603 11.7323 2.37031C11.668 2.34368 11.5703 2.31911 11.3697 2.30542C11.1635 2.29135 10.8972 2.29102 10.5003 2.29102H4.83366C4.35664 2.29102 4.03646 2.2915 3.78989 2.31165C3.55062 2.3312 3.43622 2.3661 3.36075 2.40455C3.16475 2.50442 3.0054 2.66377 2.90553 2.85978C2.86708 2.93524 2.83217 3.04964 2.81262 3.28891C2.79248 3.53548 2.79199 3.85566 2.79199 4.33268V9.99935C2.79199 10.3962 2.79233 10.6625 2.8064 10.8687C2.82009 11.0693 2.84465 11.167 2.87128 11.2313C2.97701 11.4865 3.17979 11.6893 3.43503 11.7951C3.49932 11.8217 3.59701 11.8463 3.79761 11.8599C4.00383 11.874 4.27016 11.8743 4.66699 11.8743C5.01217 11.8743 5.29199 12.1542 5.29199 12.4993C5.29199 12.8445 5.01217 13.1243 4.66699 13.1243H4.64595C4.27556 13.1244 3.96637 13.1244 3.71252 13.107C3.44827 13.089 3.19867 13.0501 2.95668 12.9499C2.39515 12.7173 1.94903 12.2712 1.71644 11.7097C1.6162 11.4677 1.57733 11.2181 1.5593 10.9538C1.54198 10.7 1.54199 10.3908 1.54199 10.0204L1.54199 4.30732C1.54198 3.86219 1.54198 3.49065 1.56678 3.18712C1.59264 2.87055 1.64857 2.57334 1.79177 2.29229C2.01148 1.86108 2.36206 1.5105 2.79326 1.29079C3.07432 1.14759 3.37153 1.09166 3.6881 1.0658C3.99163 1.041 4.36317 1.04101 4.8083 1.04102ZM10.6416 6.87435H16.1923C16.6375 6.87434 17.009 6.87433 17.3125 6.89913C17.6291 6.925 17.9263 6.98092 18.2074 7.12413C18.6386 7.34384 18.9892 7.69442 19.2089 8.12562C19.3521 8.40667 19.408 8.70389 19.4339 9.02046C19.4587 9.32398 19.4587 9.69552 19.4587 10.1406V15.6914C19.4587 16.1365 19.4587 16.508 19.4339 16.8116C19.408 17.1281 19.3521 17.4254 19.2089 17.7064C18.9892 18.1376 18.6386 18.4882 18.2074 18.7079C17.9263 18.8511 17.6291 18.907 17.3125 18.9329C17.009 18.9577 16.6375 18.9577 16.1924 18.9577H10.6416C10.1965 18.9577 9.82496 18.9577 9.52143 18.9329C9.20486 18.907 8.90765 18.8511 8.6266 18.7079C8.19539 18.4882 7.84481 18.1376 7.6251 17.7064C7.4819 17.4254 7.42597 17.1281 7.40011 16.8116C7.37531 16.508 7.37532 16.1365 7.37533 15.6914V10.1407C7.37532 9.69553 7.37531 9.32399 7.40011 9.02046C7.42597 8.70389 7.4819 8.40667 7.6251 8.12562C7.84481 7.69442 8.19539 7.34384 8.6266 7.12413C8.90765 6.98092 9.20486 6.925 9.52143 6.89913C9.82496 6.87433 10.1965 6.87434 10.6416 6.87435ZM9.62322 8.14498C9.38396 8.16453 9.26955 8.19943 9.19409 8.23788C8.99808 8.33775 8.83873 8.49711 8.73886 8.69311C8.70041 8.76858 8.66551 8.88298 8.64596 9.12225C8.62581 9.36881 8.62533 9.68899 8.62533 10.166V15.666C8.62533 16.143 8.62581 16.4632 8.64596 16.7098C8.66551 16.9491 8.70041 17.0635 8.73886 17.1389C8.83873 17.3349 8.99808 17.4943 9.19409 17.5941C9.26955 17.6326 9.38396 17.6675 9.62322 17.687C9.86979 17.7072 10.19 17.7077 10.667 17.7077H16.167C16.644 17.7077 16.9642 17.7072 17.2108 17.687C17.45 17.6675 17.5644 17.6326 17.6399 17.5941C17.8359 17.4943 17.9953 17.3349 18.0951 17.1389C18.1336 17.0635 18.1685 16.9491 18.188 16.7098C18.2082 16.4632 18.2087 16.143 18.2087 15.666V10.166C18.2087 9.68899 18.2082 9.36881 18.188 9.12225C18.1685 8.88298 18.1336 8.76858 18.0951 8.69311C17.9953 8.49711 17.8359 8.33775 17.6399 8.23788C17.5644 8.19943 17.45 8.16453 17.2108 8.14498C16.9642 8.12484 16.644 8.12435 16.167 8.12435H10.667C10.19 8.12435 9.86979 8.12484 9.62322 8.14498Z" fill="#0056D6"/>
</svg>