<svg width="20" height="20" viewBox="0 0 20 20" fill="none" xmlns="http://www.w3.org/2000/svg">
<g id="CIN0016-48L">
<path id="Vector" d="M5.43766 17.5C5.10433 17.5 4.81266 17.375 4.56266 17.125C4.31266 16.875 4.18766 16.5833 4.18766 16.25V4.375H3.9585C3.77794 4.375 3.62864 4.31597 3.51058 4.19792C3.39252 4.07986 3.3335 3.93056 3.3335 3.75C3.3335 3.56944 3.39252 3.42014 3.51058 3.30208C3.62864 3.18403 3.77794 3.125 3.9585 3.125H7.25016C7.25016 2.94444 7.30919 2.79514 7.42725 2.67708C7.5453 2.55903 7.69461 2.5 7.87516 2.5H12.1252C12.3057 2.5 12.455 2.55903 12.5731 2.67708C12.6911 2.79514 12.7502 2.94444 12.7502 3.125H16.0418C16.2224 3.125 16.3717 3.18403 16.4897 3.30208C16.6078 3.42014 16.6668 3.56944 16.6668 3.75C16.6668 3.93056 16.6078 4.07986 16.4897 4.19792C16.3717 4.31597 16.2224 4.375 16.0418 4.375H15.8127V16.25C15.8127 16.5833 15.6877 16.875 15.4377 17.125C15.1877 17.375 14.896 17.5 14.5627 17.5H5.43766ZM5.43766 4.375V16.25H14.5627V4.375H5.43766ZM7.646 13.8333C7.646 14.0139 7.70502 14.1632 7.82308 14.2812C7.94113 14.3993 8.09044 14.4583 8.271 14.4583C8.45155 14.4583 8.60086 14.3993 8.71891 14.2812C8.83697 14.1632 8.896 14.0139 8.896 13.8333V6.77083C8.896 6.59028 8.83697 6.44097 8.71891 6.32292C8.60086 6.20486 8.45155 6.14583 8.271 6.14583C8.09044 6.14583 7.94113 6.20486 7.82308 6.32292C7.70502 6.44097 7.646 6.59028 7.646 6.77083V13.8333ZM11.1043 13.8333C11.1043 14.0139 11.1634 14.1632 11.2814 14.2812C11.3995 14.3993 11.5488 14.4583 11.7293 14.4583C11.9099 14.4583 12.0592 14.3993 12.1772 14.2812C12.2953 14.1632 12.3543 14.0139 12.3543 13.8333V6.77083C12.3543 6.59028 12.2953 6.44097 12.1772 6.32292C12.0592 6.20486 11.9099 6.14583 11.7293 6.14583C11.5488 6.14583 11.3995 6.20486 11.2814 6.32292C11.1634 6.44097 11.1043 6.59028 11.1043 6.77083V13.8333Z" fill="#CC0300"/>
</g>
</svg>
