<svg width="32" height="32" viewBox="0 0 32 32" fill="none" xmlns="http://www.w3.org/2000/svg">
<rect x="0.5" y="0.5" width="31" height="31" rx="3.5" fill="white"/>
<rect x="0.5" y="0.5" width="31" height="31" rx="3.5" stroke="#F50400"/>
<path d="M19.3333 10.9993V10.3327C19.3333 9.39926 19.3333 8.93255 19.1517 8.57603C18.9919 8.26243 18.7369 8.00746 18.4233 7.84767C18.0668 7.66602 17.6001 7.66602 16.6667 7.66602H15.3333C14.3999 7.66602 13.9332 7.66602 13.5767 7.84767C13.2631 8.00746 13.0081 8.26243 12.8483 8.57603C12.6667 8.93255 12.6667 9.39926 12.6667 10.3327V10.9993M14.3333 15.5827V19.7493M17.6667 15.5827V19.7493M8.5 10.9993H23.5M21.8333 10.9993V20.3327C21.8333 21.7328 21.8333 22.4329 21.5608 22.9677C21.3212 23.4381 20.9387 23.8205 20.4683 24.0602C19.9335 24.3327 19.2335 24.3327 17.8333 24.3327H14.1667C12.7665 24.3327 12.0665 24.3327 11.5317 24.0602C11.0613 23.8205 10.6788 23.4381 10.4392 22.9677C10.1667 22.4329 10.1667 21.7328 10.1667 20.3327V10.9993" stroke="#F50400" stroke-width="1.25" stroke-linecap="round" stroke-linejoin="round"/>
</svg>
