<svg width="18" height="18" viewBox="0 0 18 18" fill="none" xmlns="http://www.w3.org/2000/svg">
<path id="Icon" d="M12.3333 3.99935V3.33268C12.3333 2.39926 12.3333 1.93255 12.1517 1.57603C11.9919 1.26243 11.7369 1.00746 11.4233 0.847671C11.0668 0.666016 10.6001 0.666016 9.66667 0.666016H8.33333C7.39991 0.666016 6.9332 0.666016 6.57668 0.847671C6.26308 1.00746 6.00811 1.26243 5.84832 1.57603C5.66667 1.93255 5.66667 2.39926 5.66667 3.33268V3.99935M7.33333 8.58268V12.7493M10.6667 8.58268V12.7493M1.5 3.99935H16.5M14.8333 3.99935V13.3327C14.8333 14.7328 14.8333 15.4329 14.5608 15.9677C14.3212 16.4381 13.9387 16.8205 13.4683 17.0602C12.9335 17.3327 12.2335 17.3327 10.8333 17.3327H7.16667C5.76654 17.3327 5.06647 17.3327 4.53169 17.0602C4.06129 16.8205 3.67883 16.4381 3.43915 15.9677C3.16667 15.4329 3.16667 14.7328 3.16667 13.3327V3.99935" stroke="#F50400" stroke-width="1.25" stroke-linecap="round" stroke-linejoin="round"/>
</svg>