<svg xmlns="http://www.w3.org/2000/svg" width="37" height="36" viewBox="0 0 37 36" fill="none">
  <g clip-path="url(#clip0_2036_7310)">
    <path d="M15.2 3.6V3.3H14.9H5.9C5.34304 3.3 4.8089 3.52125 4.41508 3.91508C4.02125 4.3089 3.8 4.84305 3.8 5.4V30.6C3.8 31.157 4.02125 31.6911 4.41508 32.0849C4.8089 32.4788 5.34305 32.7 5.9 32.7H18.5C18.8978 32.7 19.2794 32.858 19.5607 33.1393C19.842 33.4206 20 33.8022 20 34.2C20 34.5978 19.842 34.9794 19.5607 35.2607C19.2794 35.542 18.8978 35.7 18.5 35.7H5.9C4.5474 35.7 3.25019 35.1627 2.29376 34.2062C1.33732 33.2498 0.8 31.9526 0.8 30.6V5.4C0.8 4.0474 1.33732 2.75019 2.29376 1.79376C3.25019 0.83732 4.5474 0.3 5.9 0.3H16.7706C16.934 0.322428 17.0916 0.376136 17.2348 0.458241L17.3242 0.509511L17.4262 0.495019C17.4391 0.493183 17.4521 0.49227 17.4652 0.492278C17.6023 0.56176 17.7289 0.650371 17.8413 0.755516L28.6345 11.5488C28.7368 11.658 28.8234 11.7808 28.892 11.9137V12.006V12.0551L28.9076 12.1016C28.9522 12.2341 28.9831 12.3708 29 12.5095V18C29 18.3978 28.842 18.7794 28.5607 19.0607C28.2794 19.342 27.8978 19.5 27.5 19.5C27.1022 19.5 26.7206 19.342 26.4393 19.0607C26.158 18.7794 26 18.3978 26 18V14.4V14.1H25.7H20.3C18.9474 14.1 17.6502 13.5627 16.6938 12.6062C15.7373 11.6498 15.2 10.3526 15.2 9V3.6ZM18.7121 5.92587L18.2 5.41374V6.138V9C18.2 9.55695 18.4212 10.0911 18.8151 10.4849C19.2089 10.8787 19.743 11.1 20.3 11.1H23.162H23.8863L23.3741 10.5879L18.7121 5.92587ZM32.1659 27.7341L32.1667 27.735C32.3073 27.8744 32.4189 28.0403 32.4951 28.2231C32.5712 28.4059 32.6104 28.602 32.6104 28.8C32.6104 28.998 32.5712 29.1941 32.4951 29.3769C32.4189 29.5597 32.3073 29.7255 32.1667 29.865L32.165 29.8667C32.0255 30.0073 31.8596 30.1189 31.6769 30.1951C31.4941 30.2712 31.298 30.3104 31.1 30.3104C30.902 30.3104 30.7059 30.2712 30.5231 30.1951C30.3409 30.1192 30.1755 30.008 30.0363 29.868C30.0359 29.8676 30.0354 29.8672 30.035 29.8667L29.5157 29.3295L29 28.796V29.538V34.2C29 34.5978 28.842 34.9794 28.5607 35.2607C28.2794 35.542 27.8978 35.7 27.5 35.7C27.1022 35.7 26.7206 35.542 26.4393 35.2607C26.158 34.9794 26 34.5978 26 34.2V29.538V28.796L25.4843 29.3295L24.9641 29.8676C24.6816 30.1492 24.299 30.3074 23.9 30.3074C23.5002 30.3074 23.1168 30.1486 22.8341 29.8659C22.5514 29.5832 22.3926 29.1998 22.3926 28.8C22.3926 28.4002 22.5514 28.0168 22.8341 27.7341L26.4317 24.1366C26.5739 24.001 26.7413 23.8947 26.9245 23.8237L26.9245 23.8238L26.93 23.8215C27.2952 23.6715 27.7048 23.6715 28.07 23.8215L28.07 23.8216L28.0755 23.8237C28.2587 23.8947 28.4261 24.001 28.5683 24.1366L32.1659 27.7341ZM8.43934 11.5393C8.72064 11.258 9.10217 11.1 9.5 11.1H11.3C11.6978 11.1 12.0794 11.258 12.3607 11.5393C12.642 11.8206 12.8 12.2022 12.8 12.6C12.8 12.9978 12.642 13.3794 12.3607 13.6607C12.0794 13.942 11.6978 14.1 11.3 14.1H9.5C9.10217 14.1 8.72064 13.942 8.43934 13.6607C8.15803 13.3794 8 12.9978 8 12.6C8 12.2022 8.15803 11.8206 8.43934 11.5393ZM8.43934 18.7393C8.72064 18.458 9.10217 18.3 9.5 18.3H20.3C20.6978 18.3 21.0794 18.458 21.3607 18.7393C21.642 19.0206 21.8 19.4022 21.8 19.8C21.8 20.1978 21.642 20.5794 21.3607 20.8607C21.0794 21.142 20.6978 21.3 20.3 21.3H9.5C9.10217 21.3 8.72064 21.142 8.43934 20.8607C8.15803 20.5794 8 20.1978 8 19.8C8 19.4022 8.15803 19.0206 8.43934 18.7393ZM17.7607 28.0607C17.4794 28.342 17.0978 28.5 16.7 28.5H9.5C9.10217 28.5 8.72064 28.342 8.43934 28.0607C8.15803 27.7794 8 27.3978 8 27C8 26.6022 8.15803 26.2206 8.43934 25.9393C8.72064 25.658 9.10217 25.5 9.5 25.5H16.7C17.0978 25.5 17.4794 25.658 17.7607 25.9393C18.042 26.2206 18.2 26.6022 18.2 27C18.2 27.3978 18.042 27.7794 17.7607 28.0607Z" fill="#101010" stroke="#F5F5F5" stroke-width="0.6"/>
  </g>
  <defs>
    <clipPath id="clip0_2036_7310">
      <rect width="36" height="36" fill="white" transform="translate(0.5)"/>
    </clipPath>
  </defs>
</svg>