<svg width="20" height="20" viewBox="0 0 20 20" fill="none" xmlns="http://www.w3.org/2000/svg">
<g id="eye">
<path id="Icon (Stroke)" fill-rule="evenodd" clip-rule="evenodd" d="M5.16541 6.71045C3.88725 7.77721 2.99535 9.02796 2.54521 9.74072C2.48374 9.83805 2.45731 9.88079 2.43973 9.91463C2.42975 9.93385 2.42709 9.94171 2.42469 9.95169C2.42448 9.95316 2.42405 9.9563 2.42359 9.96121C2.42259 9.97183 2.42188 9.98573 2.42188 10.0013C2.42188 10.0169 2.42259 10.0308 2.42359 10.0414C2.42405 10.0463 2.42448 10.0494 2.42469 10.0509C2.42709 10.0609 2.42975 10.0688 2.43973 10.088C2.45731 10.1218 2.48374 10.1646 2.54521 10.2619C2.99535 10.9746 3.88725 12.2254 5.16541 13.2922C6.44209 14.3577 8.06648 15.2096 10.0003 15.2096C11.9342 15.2096 13.5586 14.3577 14.8353 13.2922C16.1134 12.2254 17.0053 10.9746 17.4555 10.2619C17.5169 10.1646 17.5434 10.1218 17.5609 10.088C17.5709 10.0688 17.5736 10.0609 17.576 10.0509C17.5762 10.0494 17.5766 10.0463 17.5771 10.0414C17.5781 10.0308 17.5788 10.0169 17.5788 10.0013C17.5788 9.98573 17.5781 9.97183 17.5771 9.96121C17.5766 9.95631 17.5762 9.95317 17.576 9.95169C17.5736 9.94172 17.5709 9.93385 17.5609 9.91463C17.5434 9.88079 17.5169 9.83805 17.4555 9.74072C17.0053 9.02796 16.1134 7.77721 14.8353 6.71044C13.5586 5.64491 11.9342 4.79297 10.0003 4.79297C8.06648 4.79297 6.44209 5.64491 5.16541 6.71045ZM4.36445 5.75077C5.78155 4.56805 7.68002 3.54297 10.0003 3.54297C12.3207 3.54297 14.2191 4.56805 15.6362 5.75077C17.0518 6.93227 18.0246 8.30103 18.5123 9.07325C18.5184 9.08282 18.5245 9.09244 18.5306 9.10212C18.6295 9.25811 18.739 9.43082 18.7951 9.67549C18.84 9.87148 18.84 10.1311 18.7951 10.3271C18.739 10.5718 18.6295 10.7445 18.5306 10.9005C18.5245 10.9102 18.5184 10.9198 18.5123 10.9294C18.0246 11.7016 17.0518 13.0703 15.6362 14.2518C14.2191 15.4346 12.3207 16.4596 10.0003 16.4596C7.68002 16.4596 5.78155 15.4346 4.36445 14.2518C2.94882 13.0703 1.97603 11.7016 1.48833 10.9294C1.48229 10.9198 1.47619 10.9102 1.47005 10.9005C1.37115 10.7445 1.26165 10.5718 1.20557 10.3271C1.16064 10.1311 1.16064 9.87148 1.20557 9.67549C1.26165 9.43082 1.37115 9.25811 1.47005 9.10212C1.47619 9.09244 1.48229 9.08282 1.48833 9.07325C1.97603 8.30103 2.94882 6.93227 4.36445 5.75077ZM10.0003 8.1263C8.9648 8.1263 8.12534 8.96577 8.12534 10.0013C8.12534 11.0368 8.9648 11.8763 10.0003 11.8763C11.0359 11.8763 11.8753 11.0368 11.8753 10.0013C11.8753 8.96577 11.0359 8.1263 10.0003 8.1263ZM6.87534 10.0013C6.87534 8.27541 8.27445 6.8763 10.0003 6.8763C11.7262 6.8763 13.1253 8.27541 13.1253 10.0013C13.1253 11.7272 11.7262 13.1263 10.0003 13.1263C8.27445 13.1263 6.87534 11.7272 6.87534 10.0013Z" fill="#0056D6"/>
</g>
</svg>
