<svg width="18" height="18" viewBox="0 0 18 18" fill="none" xmlns="http://www.w3.org/2000/svg">
<path fill-rule="evenodd" clip-rule="evenodd" d="M15.8012 9.0002C15.8012 12.7557 12.7567 15.8002 9.00117 15.8002C5.24564 15.8002 2.20117 12.7557 2.20117 9.0002C2.20117 5.24466 5.24564 2.2002 9.00117 2.2002C12.7567 2.2002 15.8012 5.24466 15.8012 9.0002ZM12.542 7.44103C12.8076 7.17547 12.8076 6.74492 12.542 6.47936C12.2764 6.21381 11.8459 6.21381 11.5803 6.47936L7.98117 10.0785L6.422 8.51936C6.15645 8.25381 5.7259 8.25381 5.46034 8.51936C5.19478 8.78492 5.19478 9.21547 5.46034 9.48103L7.50034 11.521C7.7659 11.7866 8.19645 11.7866 8.462 11.521L12.542 7.44103Z" fill="#00521D"/>
</svg>
