<svg width="14" height="14" viewBox="0 0 14 14" fill="none" xmlns="http://www.w3.org/2000/svg">
<path d="M4.66699 3.97787V10.0212C4.66699 10.482 5.17449 10.762 5.56533 10.5112L10.3137 7.48953C10.3968 7.43692 10.4653 7.36414 10.5127 7.27796C10.5602 7.19178 10.585 7.095 10.585 6.99662C10.585 6.89824 10.5602 6.80145 10.5127 6.71527C10.4653 6.62909 10.3968 6.55631 10.3137 6.5037L5.56533 3.48787C5.47734 3.43096 5.37563 3.39885 5.27092 3.39494C5.1662 3.39102 5.06238 3.41544 4.97039 3.46562C4.8784 3.51579 4.80165 3.58987 4.74826 3.68003C4.69486 3.77018 4.66678 3.87308 4.66699 3.97787Z" fill="#3D3D3D"/>
</svg>
