<svg width="16" height="16" viewBox="0 0 16 16" fill="none" xmlns="http://www.w3.org/2000/svg">
<g id="plus-circle" clip-path="url(#clip0_905_10073)">
<path id="Icon (Stroke)" fill-rule="evenodd" clip-rule="evenodd" d="M7.99967 1.83203C4.59392 1.83203 1.83301 4.59294 1.83301 7.9987C1.83301 11.4045 4.59392 14.1654 7.99967 14.1654C11.4054 14.1654 14.1663 11.4045 14.1663 7.9987C14.1663 4.59294 11.4054 1.83203 7.99967 1.83203ZM0.833008 7.9987C0.833008 4.04066 4.04163 0.832031 7.99967 0.832031C11.9577 0.832031 15.1663 4.04066 15.1663 7.9987C15.1663 11.9567 11.9577 15.1654 7.99967 15.1654C4.04163 15.1654 0.833008 11.9567 0.833008 7.9987ZM7.99967 4.83203C8.27582 4.83203 8.49967 5.05589 8.49967 5.33203V7.4987H10.6663C10.9425 7.4987 11.1663 7.72256 11.1663 7.9987C11.1663 8.27484 10.9425 8.4987 10.6663 8.4987H8.49967V10.6654C8.49967 10.9415 8.27582 11.1654 7.99967 11.1654C7.72353 11.1654 7.49967 10.9415 7.49967 10.6654V8.4987H5.33301C5.05687 8.4987 4.83301 8.27484 4.83301 7.9987C4.83301 7.72256 5.05687 7.4987 5.33301 7.4987H7.49967V5.33203C7.49967 5.05589 7.72353 4.83203 7.99967 4.83203Z" fill="#0056D6"/>
</g>
<defs>
<clipPath id="clip0_905_10073">
<rect width="16" height="16" fill="white"/>
</clipPath>
</defs>
</svg>
