<svg width="16" height="16" viewBox="0 0 16 16" fill="none" xmlns="http://www.w3.org/2000/svg">
<g id="fluent:send-16-filled">
<path id="Vector" d="M2.42157 1.82502C2.34717 1.78781 2.26382 1.77223 2.18101 1.78004C2.09819 1.78786 2.01922 1.81876 1.9531 1.86923C1.88697 1.91971 1.83634 1.98773 1.80696 2.06555C1.77758 2.14338 1.77063 2.22789 1.78691 2.30947L3.03402 6.62058C3.05727 6.70092 3.10272 6.77307 3.16515 6.82873C3.22757 6.88439 3.30444 6.92131 3.38691 6.93524L8.44469 7.78235C8.68291 7.82947 8.68291 8.1708 8.44469 8.21791L3.38691 9.06502C3.30444 9.07895 3.22757 9.11587 3.16515 9.17154C3.10272 9.2272 3.05727 9.29935 3.03402 9.37969L1.78691 13.6908C1.77063 13.7724 1.77758 13.8569 1.80696 13.9347C1.83634 14.0125 1.88697 14.0806 1.9531 14.131C2.01922 14.1815 2.09819 14.2124 2.18101 14.2202C2.26382 14.228 2.34717 14.2125 2.42157 14.1752L13.9771 8.39747C14.0509 8.36052 14.1128 8.30378 14.1562 8.23361C14.1995 8.16344 14.2224 8.0826 14.2224 8.00013C14.2224 7.91767 14.1995 7.83683 14.1562 7.76665C14.1128 7.69648 14.0509 7.63975 13.9771 7.6028L2.42157 1.82502Z" fill="white"/>
</g>
</svg>
