<svg xmlns="http://www.w3.org/2000/svg" width="46" height="48" viewBox="0 0 46 48" fill="none">
  <path fill-rule="evenodd" clip-rule="evenodd" d="M21.4354 0.406207C20.9766 0.620604 19.8504 1.56349 18.9328 2.50179C18.0151 3.43988 17.1035 4.29643 16.9068 4.40488C16.6687 4.53648 15.6369 4.46056 13.8168 4.17755C10.6257 3.6816 9.87573 3.78901 8.62168 4.9221C7.60037 5.84476 7.45063 6.24268 6.94696 9.37167C6.71796 10.794 6.49919 11.9891 6.46102 12.0274C6.42265 12.0656 5.27871 12.685 3.91871 13.4039C0.906514 14.996 0.24476 15.6978 0.0991873 17.4543C0.0061707 18.5753 0.0710324 18.7795 1.32676 21.3147L2.65256 23.9915L1.32676 26.6684C0.0710324 29.2036 0.0061707 29.4078 0.0991873 30.5288C0.24476 32.2852 0.906514 32.987 3.91871 34.5792C5.27871 35.2981 6.42265 35.9175 6.46102 35.9556C6.49919 35.994 6.71796 37.1891 6.94696 38.6114C7.45063 41.7404 7.60037 42.1383 8.62168 43.061C9.87386 44.1924 10.6274 44.3013 13.7954 43.8089C15.2865 43.577 16.5729 43.3874 16.6538 43.3874C16.735 43.3874 17.7041 44.2744 18.8074 45.3583C22.3925 48.8806 23.6067 48.8806 27.1918 45.3583C28.2951 44.2744 29.2643 43.3874 29.3454 43.3874C29.4263 43.3874 30.7127 43.577 32.2039 43.8089C35.3719 44.3013 36.1254 44.1924 37.3776 43.061C38.3999 42.1375 38.5484 41.7414 39.0558 38.5906C39.2867 37.1567 39.5459 35.9554 39.6321 35.921C39.718 35.8868 40.8594 35.2766 42.1685 34.5654C45.1159 32.9641 45.7712 32.2467 45.8988 30.4804C45.9829 29.3194 45.922 29.1296 44.6644 26.6304L43.3417 24.0018L44.67 21.3199C45.9282 18.7793 45.9931 18.5755 45.9001 17.4543C45.7572 15.7302 45.0836 15.0015 42.1685 13.4177C40.8594 12.7065 39.718 12.0963 39.6321 12.0621C39.5459 12.0277 39.2867 10.8264 39.0558 9.39253C38.5484 6.24164 38.3999 5.84559 37.3776 4.9221C36.1254 3.79068 35.3719 3.68181 32.2039 4.17421C30.7127 4.40613 29.4263 4.59571 29.3454 4.59571C29.2643 4.59571 28.2951 3.70871 27.1918 2.62484C24.5083 -0.0117418 23.315 -0.471611 21.4354 0.406207ZM31.5355 17.4143C32.1834 17.7492 32.3847 18.1115 32.3847 18.9422C32.3847 19.3801 31.2721 20.6052 26.8254 25.0631C23.7677 28.1285 21.0452 30.6919 20.7754 30.7596C19.9881 30.9574 19.3061 30.4495 16.3779 27.4847C14.0454 25.1232 13.6145 24.5876 13.6145 24.0495C13.6145 23.0954 14.2385 22.4482 15.1587 22.4482C15.8509 22.4482 16.132 22.6572 18.16 24.679L20.3979 26.9097L25.0877 22.2007C29.2912 17.9805 30.2013 17.1682 30.7788 17.1223C30.8704 17.1152 31.2109 17.2464 31.5355 17.4143Z" fill="#1DB954"/>
</svg>