<svg width="20" height="20" viewBox="0 0 20 20" fill="none" xmlns="http://www.w3.org/2000/svg">
<g id="CIN0008-32L">
<path id="Vector" d="M14.5416 12.3535C14.6666 12.2285 14.7326 12.0827 14.7396 11.916C14.7465 11.7493 14.6875 11.6035 14.5625 11.4785L10.4375 7.35352C10.368 7.28407 10.2986 7.23546 10.2291 7.20768C10.1597 7.1799 10.0833 7.16602 9.99998 7.16602C9.91665 7.16602 9.84026 7.1799 9.77081 7.20768C9.70137 7.23546 9.63193 7.28407 9.56248 7.35352L5.43748 11.4577C5.31248 11.5688 5.24998 11.7112 5.24998 11.8848C5.24998 12.0584 5.31248 12.2077 5.43748 12.3327C5.56248 12.4577 5.71179 12.5202 5.8854 12.5202C6.05901 12.5202 6.20831 12.4577 6.33331 12.3327L9.99998 8.68685L13.6666 12.3743C13.7778 12.4993 13.9201 12.5584 14.0937 12.5514C14.2673 12.5445 14.4166 12.4785 14.5416 12.3535Z" fill="#1F1F1F"/>
</g>
</svg>
